# xmcd CD database file
#
# Track frame offsets:
#	150
#	13967
#	26274
#	40318
#	55995
#	62264
#	78850
#	94471
#	111646
#	125741
#	137346
#	148952
#	163113
#	175493
#	190126
#	202335
#	215184
#	228422
#	242509
#	255353
#
# Disc length: 3579 seconds
#
# Revision: 0
# Processed by: cddbd v1.5.2PL0 Copyright (c) Steve Scherf et al.
# Submitted via: CDex 1.78
#
DISCID=2c0df914
DTITLE=Hazel Scott - Hazel Scott 1946-1947
DYEAR=1947
DGENRE=Jazz
TTITLE0=Valse in C sharp minor
TTITLE1=How high the moon
TTITLE2=A rainy night in G
TTITLE3=I guess I'll have to change my plans
TTITLE4=Sonata in c minor - Toccata
TTITLE5=Fantasie impromptu
TTITLE6=Nocturne in b flat minor
TTITLE7=Idyll
TTITLE8=On the sunny side of the street
TTITLE9=I've got the world on a string
TTITLE10=Butterfly kick
TTITLE11=Ich will sich spielen
TTITLE12=Emaline
TTITLE13=Nightmare blues
TTITLE14=Mary Lou
TTITLE15=Soon
TTITLE16=Brown Bee boogie
TTITLE17=Love me or leave me
TTITLE18=Love will find a way
TTITLE19=Dancing on the ceiling
EXTD=YEAR: 1947
EXTT0=
EXTT1=
EXTT2=
EXTT3=
EXTT4=
EXTT5=
EXTT6=
EXTT7=
EXTT8=
EXTT9=
EXTT10=
EXTT11=
EXTT12=
EXTT13=
EXTT14=
EXTT15=
EXTT16=
EXTT17=
EXTT18=
EXTT19=
PLAYORDER=
